<?xml version="1.0" standalone="no"?>
<!DOCTYPE svg PUBLIC "-//W3C//DTD SVG 20010904//EN"
 "http://www.w3.org/TR/2001/REC-SVG-20010904/DTD/svg10.dtd">
<svg version="1.0" xmlns="http://www.w3.org/2000/svg"
 width="1042.000000pt" height="1042.000000pt" viewBox="0 0 1042.000000 1042.000000"
 preserveAspectRatio="xMidYMid meet">

<g transform="translate(0.000000,1042.000000) scale(0.100000,-0.100000)"
fill="#000000" stroke="none">
<path d="M2090 9575 c-620 -85 -1120 -564 -1237 -1185 -17 -90 -18 -256 -18
-3180 0 -2924 1 -3090 18 -3180 55 -290 198 -560 407 -770 210 -209 480 -352
770 -407 90 -17 256 -18 3180 -18 2924 0 3090 1 3180 18 290 55 560 198 770
407 209 210 352 480 407 770 17 90 18 256 18 3180 0 2924 -1 3090 -18 3180
-55 290 -198 560 -407 770 -206 205 -471 347 -760 407 -80 16 -276 17 -3150
19 -2478 2 -3083 0 -3160 -11z m2876 -2699 c321 -456 585 -831 587 -833 2 -2
325 372 717 832 l713 835 254 0 c139 0 253 -2 253 -5 0 -3 -381 -452 -847
-997 -465 -545 -846 -996 -846 -1002 0 -6 471 -680 1046 -1498 576 -817 1047
-1489 1047 -1492 0 -3 -370 -5 -822 -4 l-822 3 -658 935 c-362 514 -669 949
-681 967 l-23 32 -828 -970 -828 -969 -254 0 c-202 0 -254 3 -248 13 8 13
1859 2182 1902 2229 l25 27 -938 1333 c-516 733 -950 1348 -963 1366 l-24 32
827 -2 828 -3 583 -829z"/>
<path d="M3534 7285 c7 -19 2891 -4111 2919 -4142 20 -23 21 -23 335 -23 250
0 313 3 309 13 -5 14 -2901 4122 -2925 4150 -14 15 -43 17 -330 17 -276 0
-313 -2 -308 -15z"/>
</g>
</svg>
